<svg width="34.000000" height="34.000000" viewBox="0 0 34 34" fill="none" xmlns="http://www.w3.org/2000/svg" xmlns:xlink="http://www.w3.org/1999/xlink">
	<desc>
			Created with Pixso.
	</desc>
	<defs>
		<clipPath id="clip50_182">
			<rect id="Редактировать файл 1" width="34.000000" height="34.000000" fill="white" fill-opacity="0"/>
		</clipPath>
	</defs>
	<g clip-path="url(#clip50_182)">
		<path id="path" d="M29.06 16.27L29.08 16.29C29.08 16.71 28.75 17.04 28.33 17.04C27.91 17.04 27.58 16.71 27.58 16.29L27.6 16.27L29.06 16.27ZM15.56 30.43L15.58 30.41C16 30.41 16.33 30.74 16.33 31.16C16.33 31.58 16 31.91 15.58 31.91L15.56 31.89L15.56 30.43Z" fill="#000000" fill-opacity="0" fill-rule="nonzero"/>
		<path id="path" d="M28.33 16.29L28.33 9.91L21.95 2.83L7.08 2.83C6.3 2.83 5.66 3.46 5.66 4.25L5.66 29.75C5.66 30.53 6.3 31.16 7.08 31.16L15.58 31.16" stroke="#4B4B4B" stroke-opacity="1.000000" stroke-width="1.500000" stroke-linejoin="round" stroke-linecap="round"/>
		<path id="path" d="M22.66 31.16L29.75 24.08L26.91 21.25L19.83 28.33L19.83 31.16L22.66 31.16Z" fill="#000000" fill-opacity="0" fill-rule="nonzero"/>
		<path id="path" d="M29.75 24.08L26.91 21.25L19.83 28.33L19.83 31.16L22.66 31.16L29.75 24.08Z" stroke="#4B4B4B" stroke-opacity="1.000000" stroke-width="1.500000" stroke-linejoin="round"/>
		<path id="path" d="M20.52 2.85L20.5 2.83C20.5 2.41 20.83 2.08 21.25 2.08C21.66 2.08 22 2.41 22 2.83L21.98 2.85L20.52 2.85ZM28.31 9.18L28.33 9.16C28.75 9.16 29.08 9.49 29.08 9.91C29.08 10.33 28.75 10.66 28.33 10.66L28.31 10.64L28.31 9.18Z" fill="#000000" fill-opacity="0" fill-rule="nonzero"/>
		<path id="path" d="M21.25 2.83L21.25 9.91L28.33 9.91" stroke="#4B4B4B" stroke-opacity="1.000000" stroke-width="1.500000" stroke-linejoin="round" stroke-linecap="round"/>
	</g>
</svg>
