<svg width="46.000000" height="46.000000" viewBox="0 0 46 46" fill="none" xmlns="http://www.w3.org/2000/svg" xmlns:xlink="http://www.w3.org/1999/xlink">
	<desc>
			Created with Pixso.
	</desc>
	<defs>
		<clipPath id="clip29_344">
			<rect id="Выход" width="46.000000" height="46.000000" fill="white" fill-opacity="0"/>
		</clipPath>
	</defs>
	<g clip-path="url(#clip29_344)">
		<path id="path" d="M22.97 5.02L22.99 5C23.41 5 23.74 5.33 23.74 5.75C23.74 6.16 23.41 6.5 22.99 6.5L22.97 6.47L22.97 5.02ZM22.98 39.52L23 39.5C23.42 39.5 23.75 39.83 23.75 40.25C23.75 40.66 23.42 41 23 41L22.98 40.98L22.98 39.52Z" fill="#000000" fill-opacity="0" fill-rule="nonzero"/>
		<path id="path" d="M22.99 5.75L5.75 5.75L5.75 40.25L23 40.25" stroke="#FFFFFF" stroke-opacity="1.000000" stroke-width="1.500000" stroke-linejoin="round" stroke-linecap="round"/>
		<path id="path" d="M32.15 32.12L32.15 32.15C31.85 32.45 31.39 32.45 31.09 32.15C30.79 31.85 30.79 31.39 31.09 31.09L31.12 31.09L32.15 32.12ZM31.12 14.9L31.09 14.9C30.79 14.6 30.79 14.14 31.09 13.84C31.39 13.54 31.85 13.54 32.15 13.84L32.15 13.87L31.12 14.9Z" fill="#000000" fill-opacity="0" fill-rule="nonzero"/>
		<path id="path" d="M31.62 31.62L40.25 23L31.62 14.37" stroke="#FFFFFF" stroke-opacity="1.000000" stroke-width="1.500000" stroke-linejoin="round" stroke-linecap="round"/>
		<path id="path" d="M15.35 23.72L15.33 23.74C14.91 23.74 14.58 23.41 14.58 22.99C14.58 22.57 14.91 22.24 15.33 22.24L15.35 22.26L15.35 23.72ZM40.23 22.26L40.25 22.24C40.66 22.24 41 22.57 41 22.99C41 23.41 40.66 23.74 40.25 23.74L40.23 23.72L40.23 22.26Z" fill="#000000" fill-opacity="0" fill-rule="nonzero"/>
		<path id="path" d="M15.33 22.99L40.25 22.99" stroke="#FFFFFF" stroke-opacity="1.000000" stroke-width="1.500000" stroke-linejoin="round" stroke-linecap="round"/>
	</g>
</svg>
