<svg width="57.000000" height="53.000000" viewBox="0 0 57 53" fill="none" xmlns="http://www.w3.org/2000/svg" xmlns:xlink="http://www.w3.org/1999/xlink">
	<desc>
			Created with Pixso.
	</desc>
	<defs>
		<clipPath id="clip7_30">
			<rect id="Сейф" width="46.000000" height="46.000000" fill="white" fill-opacity="0"/>
		</clipPath>
		<clipPath id="clip7_67">
			<rect id="Настроить" width="30.000000" height="30.000000" transform="translate(27.000000 23.000000)" fill="white" fill-opacity="0"/>
		</clipPath>
	</defs>
	<g clip-path="url(#clip7_30)">
		<path id="path" d="M11.5 13.41C12.55 13.41 13.41 12.55 13.41 11.5C13.41 10.44 12.55 9.58 11.5 9.58C10.44 9.58 9.58 10.44 9.58 11.5C9.58 12.55 10.44 13.41 11.5 13.41Z" fill="#FFFFFF" fill-opacity="1.000000" fill-rule="nonzero"/>
		<path id="path" d="M11.5 36.41C12.55 36.41 13.41 35.55 13.41 34.5C13.41 33.44 12.55 32.58 11.5 32.58C10.44 32.58 9.58 33.44 9.58 34.5C9.58 35.55 10.44 36.41 11.5 36.41Z" fill="#FFFFFF" fill-opacity="1.000000" fill-rule="nonzero"/>
		<path id="path" d="M34.5 13.41C35.55 13.41 36.41 12.55 36.41 11.5C36.41 10.44 35.55 9.58 34.5 9.58C33.44 9.58 32.58 10.44 32.58 11.5C32.58 12.55 33.44 13.41 34.5 13.41Z" fill="#FFFFFF" fill-opacity="1.000000" fill-rule="nonzero"/>
		<path id="path" d="M23 31.62C27.76 31.62 31.62 27.76 31.62 23C31.62 18.23 27.76 14.37 23 14.37C18.23 14.37 14.37 18.23 14.37 23C14.37 27.76 18.23 31.62 23 31.62Z" fill="#000000" fill-opacity="0" fill-rule="nonzero"/>
		<path id="path" d="M31.62 23C31.62 18.23 27.76 14.37 23 14.37C18.23 14.37 14.37 18.23 14.37 23C14.37 27.76 18.23 31.62 23 31.62C27.76 31.62 31.62 27.76 31.62 23Z" stroke="#FFFFFF" stroke-opacity="1.000000" stroke-width="2.000000" stroke-linejoin="round"/>
		<path id="path" d="M42 25L42 6.77C42 5.24 40.72 4 39.14 4L6.85 4C5.27 4 4 5.24 4 6.77L4 38.22C4 39.75 5.27 41 6.85 41L32.5 41" stroke="#FFFFFF" stroke-opacity="1.000000" stroke-width="2.000000" stroke-linejoin="round" stroke-linecap="round"/>
	</g>
	<g clip-path="url(#clip7_67)">
		<path id="path" d="M49.92 32.48C50.71 33.6 51.26 34.89 51.5 36.29L54.5 36.29L54.5 39.7L51.5 39.7C51.26 41.1 50.71 42.39 49.92 43.51L52.04 45.63L49.63 48.04L47.51 45.92C46.39 46.71 45.1 47.26 43.7 47.5L43.7 50.5L40.29 50.5L40.29 47.5C38.89 47.26 37.6 46.71 36.48 45.92L34.36 48.04L31.95 45.63L34.07 43.51C33.28 42.39 32.73 41.1 32.49 39.7L29.5 39.7L29.5 36.29L32.49 36.29C32.73 34.89 33.28 33.6 34.07 32.48L31.95 30.36L34.36 27.95L36.48 30.07C37.6 29.28 38.89 28.73 40.29 28.49L40.29 25.5L43.7 25.5L43.7 28.49C45.1 28.73 46.39 29.28 47.51 30.07L49.63 27.95L52.04 30.36L49.92 32.48Z" fill="#000000" fill-opacity="0" fill-rule="nonzero"/>
		<path id="path" d="M51.5 36.29L54.5 36.29L54.5 39.7L51.5 39.7C51.26 41.1 50.71 42.39 49.92 43.51L52.04 45.63L49.63 48.04L47.51 45.92C46.39 46.71 45.1 47.26 43.7 47.5L43.7 50.5L40.29 50.5L40.29 47.5C38.89 47.26 37.6 46.71 36.48 45.92L34.36 48.04L31.95 45.63L34.07 43.51C33.28 42.39 32.73 41.1 32.49 39.7L29.5 39.7L29.5 36.29L32.49 36.29C32.73 34.89 33.28 33.6 34.07 32.48L31.95 30.36L34.36 27.95L36.48 30.07C37.6 29.28 38.89 28.73 40.29 28.49L40.29 25.5L43.7 25.5L43.7 28.49C45.1 28.73 46.39 29.28 47.51 30.07L49.63 27.95L52.04 30.36L49.92 32.48C50.71 33.6 51.26 34.89 51.5 36.29Z" stroke="#FFFFFF" stroke-opacity="1.000000" stroke-width="2.000000" stroke-linejoin="round"/>
		<path id="path" d="M42 41.12C43.72 41.12 45.12 39.72 45.12 38C45.12 36.27 43.72 34.87 42 34.87C40.27 34.87 38.87 36.27 38.87 38C38.87 39.72 40.27 41.12 42 41.12Z" fill="#000000" fill-opacity="0" fill-rule="nonzero"/>
		<path id="path" d="M45.12 38C45.12 36.27 43.72 34.87 42 34.87C40.27 34.87 38.87 36.27 38.87 38C38.87 39.72 40.27 41.12 42 41.12C43.72 41.12 45.12 39.72 45.12 38Z" stroke="#FFFFFF" stroke-opacity="1.000000" stroke-width="2.000000" stroke-linejoin="round"/>
	</g>
</svg>
