<svg width="46.000000" height="46.000000" viewBox="0 0 46 46" fill="none" xmlns="http://www.w3.org/2000/svg" xmlns:xlink="http://www.w3.org/1999/xlink">
	<desc>
			Created with Pixso.
	</desc>
	<defs>
		<clipPath id="clip7_13">
			<rect id="Полет на крыле" width="46.000000" height="46.000000" fill="white" fill-opacity="0"/>
		</clipPath>
	</defs>
	<g clip-path="url(#clip7_13)">
		<path id="path" d="M22.79 16.58C25.43 16.58 27.58 14.43 27.58 11.79C27.58 9.14 25.43 7 22.79 7C20.14 7 18 9.14 18 11.79C18 14.43 20.14 16.58 22.79 16.58Z" fill="#000000" fill-opacity="0" fill-rule="nonzero"/>
		<path id="path" d="M27.58 11.79C27.58 9.14 25.43 7 22.79 7C20.14 7 18 9.14 18 11.79C18 14.43 20.14 16.58 22.79 16.58C25.43 16.58 27.58 14.43 27.58 11.79Z" stroke="#FFFFFF" stroke-opacity="1.000000" stroke-width="2.000000"/>
		<path id="path" d="M23 19.16C14.65 19.16 7.66 26.14 7.66 34.5L14.37 34.5L14.37 42.16L31.62 42.16L31.62 34.5L38.33 34.5C38.34 26.15 31.34 19.16 23 19.16Z" fill="#000000" fill-opacity="0" fill-rule="nonzero"/>
		<path id="path" d="M7.66 34.5L14.37 34.5L14.37 42.16L31.62 42.16L31.62 34.5L38.33 34.5C38.34 26.15 31.34 19.16 23 19.16C14.65 19.16 7.66 26.14 7.66 34.5Z" stroke="#FFFFFF" stroke-opacity="1.000000" stroke-width="2.000000" stroke-linejoin="round"/>
		<path id="path" d="M13.39 22.06L13.37 22.04C13.37 21.48 13.81 21.04 14.37 21.04C14.93 21.04 15.37 21.48 15.37 22.04L15.35 22.06L13.39 22.06ZM15.35 34.48L15.37 34.5C15.37 35.06 14.93 35.5 14.37 35.5C13.81 35.5 13.37 35.06 13.37 34.5L13.39 34.48L15.35 34.48Z" fill="#000000" fill-opacity="0" fill-rule="nonzero"/>
		<path id="path" d="M14.37 22.04L14.37 34.5" stroke="#FFFFFF" stroke-opacity="1.000000" stroke-width="2.000000" stroke-linejoin="round" stroke-linecap="round"/>
		<path id="path" d="M30.64 22.06L30.62 22.04C30.62 21.48 31.06 21.04 31.62 21.04C32.18 21.04 32.62 21.48 32.62 22.04L32.6 22.06L30.64 22.06ZM32.6 34.48L32.62 34.5C32.62 35.06 32.18 35.5 31.62 35.5C31.06 35.5 30.62 35.06 30.62 34.5L30.64 34.48L32.6 34.48Z" fill="#000000" fill-opacity="0" fill-rule="nonzero"/>
		<path id="path" d="M31.62 22.04L31.62 34.5" stroke="#FFFFFF" stroke-opacity="1.000000" stroke-width="2.000000" stroke-linejoin="round" stroke-linecap="round"/>
		<path id="path" d="M22.02 19.18L22 19.16C22 18.6 22.43 18.16 23 18.16C23.56 18.16 24 18.6 24 19.16L23.98 19.18L22.02 19.18ZM23.98 42.14L24 42.16C24 42.72 23.56 43.16 23 43.16C22.43 43.16 22 42.72 22 42.16L22.02 42.14L23.98 42.14Z" fill="#000000" fill-opacity="0" fill-rule="nonzero"/>
		<path id="path" d="M23 19.16L23 42.16" stroke="#FFFFFF" stroke-opacity="1.000000" stroke-width="2.000000" stroke-linejoin="round" stroke-linecap="round"/>
	</g>
</svg>
