<svg width="46.000000" height="46.000000" viewBox="0 0 46 46" fill="none" xmlns="http://www.w3.org/2000/svg" xmlns:xlink="http://www.w3.org/1999/xlink">
	<desc>
			Created with Pixso.
	</desc>
	<defs>
		<clipPath id="clip29_319">
			<rect id="Сейф" width="37.785721" height="37.785717" transform="translate(4.928589 0.000000)" fill="white" fill-opacity="0"/>
		</clipPath>
		<clipPath id="clip29_326">
			<rect id="Сейф" width="37.785721" height="37.785717" transform="translate(8.214294 8.214355)" fill="white" fill-opacity="0"/>
		</clipPath>
		<clipPath id="clip29_312">
			<rect id="Сейф" width="37.785721" height="37.785717" transform="translate(0.000000 4.928467)" fill="white" fill-opacity="0"/>
		</clipPath>
	</defs>
	<g clip-path="url(#clip29_319)">
		<path id="path" d="M37.2 3.14L10.43 3.14C9.13 3.14 8.07 4.2 8.07 5.51L8.07 32.27C8.07 33.57 9.13 34.63 10.43 34.63L37.2 34.63C38.5 34.63 39.56 33.57 39.56 32.27L39.56 5.51C39.56 4.2 38.5 3.14 37.2 3.14Z" fill="#000000" fill-opacity="0" fill-rule="nonzero"/>
		<path id="path" d="M10.43 3.14C9.13 3.14 8.07 4.2 8.07 5.51L8.07 32.27C8.07 33.57 9.13 34.63 10.43 34.63L37.2 34.63C38.5 34.63 39.56 33.57 39.56 32.27L39.56 5.51C39.56 4.2 38.5 3.14 37.2 3.14L10.43 3.14Z" stroke="#FFFFFF" stroke-opacity="1.000000" stroke-width="1.500000" stroke-linejoin="round"/>
		<path id="path" d="M14.37 11.02C15.24 11.02 15.94 10.31 15.94 9.44C15.94 8.57 15.24 7.87 14.37 7.87C13.5 7.87 12.8 8.57 12.8 9.44C12.8 10.31 13.5 11.02 14.37 11.02Z" fill="#FFFFFF" fill-opacity="1.000000" fill-rule="nonzero"/>
		<path id="path" d="M14.37 29.91C15.24 29.91 15.94 29.2 15.94 28.33C15.94 27.46 15.24 26.76 14.37 26.76C13.5 26.76 12.8 27.46 12.8 28.33C12.8 29.2 13.5 29.91 14.37 29.91Z" fill="#FFFFFF" fill-opacity="1.000000" fill-rule="nonzero"/>
		<path id="path" d="M33.26 11.02C34.13 11.02 34.84 10.31 34.84 9.44C34.84 8.57 34.13 7.87 33.26 7.87C32.39 7.87 31.69 8.57 31.69 9.44C31.69 10.31 32.39 11.02 33.26 11.02Z" fill="#FFFFFF" fill-opacity="1.000000" fill-rule="nonzero"/>
		<path id="path" d="M33.26 29.91C34.13 29.91 34.84 29.2 34.84 28.33C34.84 27.46 34.13 26.76 33.26 26.76C32.39 26.76 31.69 27.46 31.69 28.33C31.69 29.2 32.39 29.91 33.26 29.91Z" fill="#FFFFFF" fill-opacity="1.000000" fill-rule="nonzero"/>
		<path id="path" d="M23.82 25.97C27.73 25.97 30.9 22.8 30.9 18.89C30.9 14.98 27.73 11.8 23.82 11.8C19.9 11.8 16.73 14.98 16.73 18.89C16.73 22.8 19.9 25.97 23.82 25.97Z" fill="#000000" fill-opacity="0" fill-rule="nonzero"/>
		<path id="path" d="M30.9 18.89C30.9 14.98 27.73 11.8 23.82 11.8C19.9 11.8 16.73 14.98 16.73 18.89C16.73 22.8 19.9 25.97 23.82 25.97C27.73 25.97 30.9 22.8 30.9 18.89Z" stroke="#FFFFFF" stroke-opacity="1.000000" stroke-width="1.500000" stroke-linejoin="round"/>
	</g>
	<g clip-path="url(#clip29_326)">
		<path id="path" d="M40.48 11.36L13.72 11.36C12.42 11.36 11.36 12.42 11.36 13.72L11.36 40.48C11.36 41.79 12.42 42.85 13.72 42.85L40.48 42.85C41.79 42.85 42.85 41.79 42.85 40.48L42.85 13.72C42.85 12.42 41.79 11.36 40.48 11.36Z" fill="#222028" fill-opacity="1.000000" fill-rule="nonzero"/>
		<path id="path" d="M13.72 11.36C12.42 11.36 11.36 12.42 11.36 13.72L11.36 40.48C11.36 41.79 12.42 42.85 13.72 42.85L40.48 42.85C41.79 42.85 42.85 41.79 42.85 40.48L42.85 13.72C42.85 12.42 41.79 11.36 40.48 11.36L13.72 11.36Z" stroke="#FFFFFF" stroke-opacity="1.000000" stroke-width="1.500000" stroke-linejoin="round"/>
		<path id="path" d="M17.66 19.23C18.53 19.23 19.23 18.53 19.23 17.66C19.23 16.79 18.53 16.08 17.66 16.08C16.79 16.08 16.08 16.79 16.08 17.66C16.08 18.53 16.79 19.23 17.66 19.23Z" fill="#FFFFFF" fill-opacity="1.000000" fill-rule="nonzero"/>
		<path id="path" d="M17.66 38.12C18.53 38.12 19.23 37.42 19.23 36.55C19.23 35.68 18.53 34.97 17.66 34.97C16.79 34.97 16.08 35.68 16.08 36.55C16.08 37.42 16.79 38.12 17.66 38.12Z" fill="#FFFFFF" fill-opacity="1.000000" fill-rule="nonzero"/>
		<path id="path" d="M36.55 19.23C37.42 19.23 38.12 18.53 38.12 17.66C38.12 16.79 37.42 16.08 36.55 16.08C35.68 16.08 34.97 16.79 34.97 17.66C34.97 18.53 35.68 19.23 36.55 19.23Z" fill="#FFFFFF" fill-opacity="1.000000" fill-rule="nonzero"/>
		<path id="path" d="M36.55 38.12C37.42 38.12 38.12 37.42 38.12 36.55C38.12 35.68 37.42 34.97 36.55 34.97C35.68 34.97 34.97 35.68 34.97 36.55C34.97 37.42 35.68 38.12 36.55 38.12Z" fill="#FFFFFF" fill-opacity="1.000000" fill-rule="nonzero"/>
		<path id="path" d="M27.1 34.19C31.02 34.19 34.19 31.02 34.19 27.1C34.19 23.19 31.02 20.02 27.1 20.02C23.19 20.02 20.02 23.19 20.02 27.1C20.02 31.02 23.19 34.19 27.1 34.19Z" fill="#222028" fill-opacity="1.000000" fill-rule="nonzero"/>
		<path id="path" d="M34.19 27.1C34.19 23.19 31.02 20.02 27.1 20.02C23.19 20.02 20.02 23.19 20.02 27.1C20.02 31.02 23.19 34.19 27.1 34.19C31.02 34.19 34.19 31.02 34.19 27.1Z" stroke="#FFFFFF" stroke-opacity="1.000000" stroke-width="1.500000" stroke-linejoin="round"/>
	</g>
	<g clip-path="url(#clip29_312)">
		<path id="path" d="M32.27 8.07L5.51 8.07C4.2 8.07 3.14 9.13 3.14 10.43L3.14 37.2C3.14 38.5 4.2 39.56 5.51 39.56L32.27 39.56C33.57 39.56 34.63 38.5 34.63 37.2L34.63 10.43C34.63 9.13 33.57 8.07 32.27 8.07Z" fill="#222028" fill-opacity="1.000000" fill-rule="nonzero"/>
		<path id="path" d="M5.51 8.07C4.2 8.07 3.14 9.13 3.14 10.43L3.14 37.2C3.14 38.5 4.2 39.56 5.51 39.56L32.27 39.56C33.57 39.56 34.63 38.5 34.63 37.2L34.63 10.43C34.63 9.13 33.57 8.07 32.27 8.07L5.51 8.07Z" stroke="#FFFFFF" stroke-opacity="1.000000" stroke-width="1.500000" stroke-linejoin="round"/>
		<path id="path" d="M9.44 15.94C10.31 15.94 11.02 15.24 11.02 14.37C11.02 13.5 10.31 12.8 9.44 12.8C8.57 12.8 7.87 13.5 7.87 14.37C7.87 15.24 8.57 15.94 9.44 15.94Z" fill="#FFFFFF" fill-opacity="1.000000" fill-rule="nonzero"/>
		<path id="path" d="M9.44 34.84C10.31 34.84 11.02 34.13 11.02 33.26C11.02 32.39 10.31 31.69 9.44 31.69C8.57 31.69 7.87 32.39 7.87 33.26C7.87 34.13 8.57 34.84 9.44 34.84Z" fill="#FFFFFF" fill-opacity="1.000000" fill-rule="nonzero"/>
		<path id="path" d="M28.33 15.94C29.2 15.94 29.91 15.24 29.91 14.37C29.91 13.5 29.2 12.8 28.33 12.8C27.46 12.8 26.76 13.5 26.76 14.37C26.76 15.24 27.46 15.94 28.33 15.94Z" fill="#FFFFFF" fill-opacity="1.000000" fill-rule="nonzero"/>
		<path id="path" d="M28.33 34.84C29.2 34.84 29.91 34.13 29.91 33.26C29.91 32.39 29.2 31.69 28.33 31.69C27.46 31.69 26.76 32.39 26.76 33.26C26.76 34.13 27.46 34.84 28.33 34.84Z" fill="#FFFFFF" fill-opacity="1.000000" fill-rule="nonzero"/>
		<path id="path" d="M18.89 30.9C22.8 30.9 25.97 27.73 25.97 23.82C25.97 19.9 22.8 16.73 18.89 16.73C14.98 16.73 11.8 19.9 11.8 23.82C11.8 27.73 14.98 30.9 18.89 30.9Z" fill="#222028" fill-opacity="1.000000" fill-rule="nonzero"/>
		<path id="path" d="M25.97 23.82C25.97 19.9 22.8 16.73 18.89 16.73C14.98 16.73 11.8 19.9 11.8 23.82C11.8 27.73 14.98 30.9 18.89 30.9C22.8 30.9 25.97 27.73 25.97 23.82Z" stroke="#FFFFFF" stroke-opacity="1.000000" stroke-width="1.500000" stroke-linejoin="round"/>
	</g>
</svg>
