<svg width="32.000000" height="32.000000" viewBox="0 0 32 32" fill="none" xmlns="http://www.w3.org/2000/svg" xmlns:xlink="http://www.w3.org/1999/xlink">
	<desc>
			Created with Pixso.
	</desc>
	<defs>
		<clipPath id="clip50_172">
			<rect id="Поиск" width="32.000000" height="32.000000" fill="white" fill-opacity="0"/>
		</clipPath>
	</defs>
	<g clip-path="url(#clip50_172)">
		<path id="path" d="M14 25.33C20.25 25.33 25.33 20.25 25.33 14C25.33 7.74 20.25 2.66 14 2.66C7.74 2.66 2.66 7.74 2.66 14C2.66 20.25 7.74 25.33 14 25.33Z" fill="#000000" fill-opacity="0" fill-rule="nonzero"/>
		<path id="path" d="M25.33 14C25.33 7.74 20.25 2.66 14 2.66C7.74 2.66 2.66 7.74 2.66 14C2.66 20.25 7.74 25.33 14 25.33C20.25 25.33 25.33 20.25 25.33 14Z" stroke="#4B4B4B" stroke-opacity="1.000000" stroke-width="1.500000" stroke-linejoin="round"/>
		<path id="path" d="M18.27 9.03L18.3 9.03C18.59 9.32 18.59 9.79 18.3 10.09C18 10.38 17.53 10.38 17.24 10.09L17.24 10.06L18.27 9.03ZM10.75 10.06L10.75 10.09C10.46 10.38 9.99 10.38 9.69 10.09C9.4 9.79 9.4 9.32 9.69 9.03L9.72 9.03L10.75 10.06Z" fill="#000000" fill-opacity="0" fill-rule="nonzero"/>
		<path id="path" d="M17.77 9.56C16.8 8.59 15.47 8 14 8C12.52 8 11.19 8.59 10.22 9.56" stroke="#4B4B4B" stroke-opacity="1.000000" stroke-width="1.500000" stroke-linejoin="round" stroke-linecap="round"/>
		<path id="path" d="M21.64 22.67L21.61 22.67C21.32 22.38 21.32 21.91 21.61 21.61C21.91 21.32 22.38 21.32 22.67 21.61L22.67 21.64L21.64 22.67ZM28.3 27.27L28.33 27.27C28.63 27.57 28.63 28.03 28.33 28.33C28.03 28.63 27.57 28.63 27.27 28.33L27.27 28.3L28.3 27.27Z" fill="#000000" fill-opacity="0" fill-rule="nonzero"/>
		<path id="path" d="M22.14 22.14L27.8 27.8" stroke="#4B4B4B" stroke-opacity="1.000000" stroke-width="1.500000" stroke-linejoin="round" stroke-linecap="round"/>
	</g>
</svg>
