<svg width="46.000000" height="46.000000" viewBox="0 0 46 46" fill="none" xmlns="http://www.w3.org/2000/svg" xmlns:xlink="http://www.w3.org/1999/xlink">
	<desc>
			Created with Pixso.
	</desc>
	<defs>
		<clipPath id="clip29_279">
			<rect id="Сейф" width="41.000000" height="41.000000" fill="white" fill-opacity="0"/>
		</clipPath>
		<clipPath id="clip29_301">
			<rect id="Персонал" width="24.840000" height="23.433962" transform="translate(21.160034 22.566040)" fill="white" fill-opacity="0"/>
		</clipPath>
	</defs>
	<g clip-path="url(#clip29_279)">
		<path id="path" d="M35.02 3.41L5.97 3.41C4.56 3.41 3.41 4.56 3.41 5.97L3.41 35.02C3.41 36.43 4.56 37.58 5.97 37.58L35.02 37.58C36.43 37.58 37.58 36.43 37.58 35.02L37.58 5.97C37.58 4.56 36.43 3.41 35.02 3.41Z" fill="#000000" fill-opacity="0" fill-rule="nonzero"/>
		<path id="path" d="M5.97 3.41C4.56 3.41 3.41 4.56 3.41 5.97L3.41 35.02C3.41 36.43 4.56 37.58 5.97 37.58L35.02 37.58C36.43 37.58 37.58 36.43 37.58 35.02L37.58 5.97C37.58 4.56 36.43 3.41 35.02 3.41L5.97 3.41Z" stroke="#FFFFFF" stroke-opacity="1.000000" stroke-width="1.500000" stroke-linejoin="round"/>
		<path id="path" d="M10.24 11.95C11.19 11.95 11.95 11.19 11.95 10.25C11.95 9.3 11.19 8.54 10.24 8.54C9.3 8.54 8.54 9.3 8.54 10.25C8.54 11.19 9.3 11.95 10.24 11.95Z" fill="#FFFFFF" fill-opacity="1.000000" fill-rule="nonzero"/>
		<path id="path" d="M10.24 32.45C11.19 32.45 11.95 31.69 11.95 30.75C11.95 29.8 11.19 29.04 10.24 29.04C9.3 29.04 8.54 29.8 8.54 30.75C8.54 31.69 9.3 32.45 10.24 32.45Z" fill="#FFFFFF" fill-opacity="1.000000" fill-rule="nonzero"/>
		<path id="path" d="M30.75 11.95C31.69 11.95 32.45 11.19 32.45 10.25C32.45 9.3 31.69 8.54 30.75 8.54C29.8 8.54 29.04 9.3 29.04 10.25C29.04 11.19 29.8 11.95 30.75 11.95Z" fill="#FFFFFF" fill-opacity="1.000000" fill-rule="nonzero"/>
		<path id="path" d="M30.75 32.45C31.69 32.45 32.45 31.69 32.45 30.75C32.45 29.8 31.69 29.04 30.75 29.04C29.8 29.04 29.04 29.8 29.04 30.75C29.04 31.69 29.8 32.45 30.75 32.45Z" fill="#FFFFFF" fill-opacity="1.000000" fill-rule="nonzero"/>
		<path id="path" d="M20.5 28.18C24.74 28.18 28.18 24.74 28.18 20.5C28.18 16.25 24.74 12.81 20.5 12.81C16.25 12.81 12.81 16.25 12.81 20.5C12.81 24.74 16.25 28.18 20.5 28.18Z" fill="#000000" fill-opacity="0" fill-rule="nonzero"/>
		<path id="path" d="M28.18 20.5C28.18 16.25 24.74 12.81 20.5 12.81C16.25 12.81 12.81 16.25 12.81 20.5C12.81 24.74 16.25 28.18 20.5 28.18C24.74 28.18 28.18 24.74 28.18 20.5Z" stroke="#FFFFFF" stroke-opacity="1.000000" stroke-width="1.500000" stroke-linejoin="round"/>
	</g>
	<g clip-path="url(#clip29_301)">
		<path id="path" d="M33.58 32.33C35.58 32.33 37.2 30.8 37.2 28.91C37.2 27.02 35.58 25.49 33.58 25.49C31.57 25.49 29.95 27.02 29.95 28.91C29.95 30.8 31.57 32.33 33.58 32.33Z" fill="#FFFFFF" fill-opacity="1.000000" fill-rule="nonzero"/>
		<path id="path" d="M37.2 28.91C37.2 27.02 35.58 25.49 33.58 25.49C31.57 25.49 29.95 27.02 29.95 28.91C29.95 30.8 31.57 32.33 33.58 32.33C35.58 32.33 37.2 30.8 37.2 28.91Z" stroke="#FFFFFF" stroke-opacity="1.000000" stroke-width="1.500000" stroke-linejoin="round"/>
		<path id="path" d="M24.26 42.48L24.26 43.07L42.89 43.07L42.89 42.48C42.89 40.29 42.89 39.2 42.44 38.36C42.04 37.63 41.41 37.03 40.63 36.66C39.74 36.23 38.58 36.23 36.27 36.23L30.88 36.23C28.57 36.23 27.41 36.23 26.52 36.66C25.74 37.03 25.11 37.63 24.71 38.36C24.26 39.2 24.26 40.29 24.26 42.48Z" fill="#FFFFFF" fill-opacity="1.000000" fill-rule="nonzero"/>
		<path id="path" d="M24.26 43.07L42.89 43.07L42.89 42.48C42.89 40.29 42.89 39.2 42.44 38.36C42.04 37.63 41.41 37.03 40.63 36.66C39.74 36.23 38.58 36.23 36.27 36.23L30.88 36.23C28.57 36.23 27.41 36.23 26.52 36.66C25.74 37.03 25.11 37.63 24.71 38.36C24.26 39.2 24.26 40.29 24.26 42.48L24.26 43.07Z" stroke="#FFFFFF" stroke-opacity="1.000000" stroke-width="1.500000" stroke-linejoin="round"/>
	</g>
</svg>
