<svg width="46.000000" height="46.000000" viewBox="0 0 46 46" fill="none" xmlns="http://www.w3.org/2000/svg" xmlns:xlink="http://www.w3.org/1999/xlink">
	<desc>
			Created with Pixso.
	</desc>
	<defs>
		<clipPath id="clip29_352">
			<rect id="Гамбургер Икона" width="46.000000" height="46.000000" fill="white" fill-opacity="0"/>
		</clipPath>
	</defs>
	<g clip-path="url(#clip29_352)">
		<path id="path" d="M7.63 12.18L7.61 12.2C7.19 12.2 6.86 11.87 6.86 11.45C6.86 11.03 7.19 10.7 7.61 10.7L7.63 10.72L7.63 12.18ZM38.26 10.72L38.28 10.7C38.7 10.7 39.03 11.03 39.03 11.45C39.03 11.87 38.7 12.2 38.28 12.2L38.26 12.18L38.26 10.72Z" fill="#000000" fill-opacity="0" fill-rule="nonzero"/>
		<path id="path" d="M7.61 11.45L38.28 11.45" stroke="#FFFFFF" stroke-opacity="1.000000" stroke-width="1.500000" stroke-linejoin="round" stroke-linecap="round"/>
		<path id="path" d="M7.63 23.68L7.61 23.7C7.19 23.7 6.86 23.37 6.86 22.95C6.86 22.53 7.19 22.2 7.61 22.2L7.63 22.22L7.63 23.68ZM38.26 22.22L38.28 22.2C38.7 22.2 39.03 22.53 39.03 22.95C39.03 23.37 38.7 23.7 38.28 23.7L38.26 23.68L38.26 22.22Z" fill="#000000" fill-opacity="0" fill-rule="nonzero"/>
		<path id="path" d="M7.61 22.95L38.28 22.95" stroke="#FFFFFF" stroke-opacity="1.000000" stroke-width="1.500000" stroke-linejoin="round" stroke-linecap="round"/>
		<path id="path" d="M7.63 35.18L7.61 35.2C7.19 35.2 6.86 34.87 6.86 34.45C6.86 34.03 7.19 33.7 7.61 33.7L7.63 33.72L7.63 35.18ZM38.26 33.72L38.28 33.7C38.7 33.7 39.03 34.03 39.03 34.45C39.03 34.87 38.7 35.2 38.28 35.2L38.26 35.18L38.26 33.72Z" fill="#000000" fill-opacity="0" fill-rule="nonzero"/>
		<path id="path" d="M7.61 34.45L38.28 34.45" stroke="#FFFFFF" stroke-opacity="1.000000" stroke-width="1.500000" stroke-linejoin="round" stroke-linecap="round"/>
	</g>
</svg>
